<svg xmlns="http://www.w3.org/2000/svg" viewBox="0 0 60 60"><path class="st0" fill="#E5E5E5" d="M0 0h60v60H0z"/><path class="st1" fill="#D22856" d="M30 20.15c-3.51 0-7.02.63-8.3 1.88-1.06 1.04-1.41 2.87-1.53 4.03 0 0-.02.11-.02.17 0 .45.37.82.82.82.05 0 2.03-.16 3.22-.26.03 0 .06-.01.09-.02.44-.01.8-.37.8-.82v-1.62c0-.5.41-.9.91-.9h8.03c.5 0 .91.4.91.9v1.62c0 .45.36.81.8.82.03.01.06.01.08.02 1.19.1 3.16.26 3.22.26.45 0 .82-.37.82-.82 0-.05-.02-.17-.02-.17-.12-1.16-.47-2.99-1.53-4.03-1.28-1.25-4.79-1.88-8.3-1.88zm0 10.67c-.91 0-1.64.73-1.64 1.64 0 .91.73 1.64 1.64 1.64a1.641 1.641 0 000-3.28zm-1.23-3.69V26.1c0-.57-.46-1.03-1.02-1.03-.57 0-1.02.46-1.02 1.03v1.02l-5.54 5.91c-.38.38-.62.89-.62 1.47v1.65c0 .91.73 1.64 1.64 1.64h.41v1.02c0 .57.46 1.03 1.03 1.03.57 0 1.02-.46 1.02-1.03V37.8h10.67v1.02c0 .57.46 1.03 1.02 1.03.57 0 1.03-.46 1.03-1.03V37.8h.41c.9 0 1.64-.74 1.64-1.64v-1.65c0-.58-.24-1.09-.62-1.47l-5.54-5.91V26.1c0-.57-.46-1.03-1.02-1.03-.57 0-1.03.46-1.03 1.03v1.02c0 .01-2.46.01-2.46.01zM30 29.18c1.81 0 3.28 1.47 3.28 3.28s-1.47 3.28-3.28 3.28c-1.81 0-3.28-1.47-3.28-3.28s1.47-3.28 3.28-3.28z"/></svg>